<mxfile host="www.draw.io" modified="2019-12-31T02:31:46.159Z" agent="Mozilla/5.0 (Windows NT 10.0; Win64; x64) AppleWebKit/537.36 (KHTML, like Gecko) Chrome/79.0.3945.88 Safari/537.36" etag="19bvhw61LFl2QeuDiGxA" version="12.4.7" type="github" pages="2">
  <diagram id="aTVPxeFMxJk2u3nc0_JW" name="Page-1">
    <mxGraphModel dx="1038" dy="548" grid="1" gridSize="10" guides="1" tooltips="1" connect="1" arrows="1" fold="1" page="1" pageScale="1" pageWidth="827" pageHeight="1169" math="0" shadow="0">
      <root>
        <mxCell id="0"/>
        <mxCell id="1" parent="0"/>
        <mxCell id="X5Pro7_Rpoa1wK5Us6QA-8" value="xdo-pcode" style="rounded=1;whiteSpace=wrap;html=1;" vertex="1" parent="1">
          <mxGeometry x="10" y="210" width="120" height="60" as="geometry"/>
        </mxCell>
        <mxCell id="X5Pro7_Rpoa1wK5Us6QA-9" value="xdo-import" style="rounded=1;whiteSpace=wrap;html=1;" vertex="1" parent="1">
          <mxGeometry x="160" y="210" width="120" height="60" as="geometry"/>
        </mxCell>
        <mxCell id="X5Pro7_Rpoa1wK5Us6QA-10" value="xdo-print" style="rounded=1;whiteSpace=wrap;html=1;" vertex="1" parent="1">
          <mxGeometry x="310" y="210" width="120" height="60" as="geometry"/>
        </mxCell>
        <mxCell id="X5Pro7_Rpoa1wK5Us6QA-11" value="xdo-report" style="rounded=1;whiteSpace=wrap;html=1;" vertex="1" parent="1">
          <mxGeometry x="460" y="210" width="120" height="60" as="geometry"/>
        </mxCell>
        <mxCell id="X5Pro7_Rpoa1wK5Us6QA-12" value="&lt;div style=&quot;text-align: left&quot;&gt;&lt;span&gt;xdo-stray-file&lt;/span&gt;&lt;/div&gt;" style="rounded=1;whiteSpace=wrap;html=1;" vertex="1" parent="1">
          <mxGeometry x="10" y="290" width="120" height="60" as="geometry"/>
        </mxCell>
        <mxCell id="X5Pro7_Rpoa1wK5Us6QA-13" value="&lt;div style=&quot;text-align: left&quot;&gt;&lt;span&gt;xdo-stray-file&lt;/span&gt;&lt;/div&gt;" style="rounded=1;whiteSpace=wrap;html=1;" vertex="1" parent="1">
          <mxGeometry x="160" y="290" width="120" height="60" as="geometry"/>
        </mxCell>
        <mxCell id="X5Pro7_Rpoa1wK5Us6QA-14" value="&lt;div style=&quot;text-align: left&quot;&gt;&lt;span&gt;xdo-ic-card&lt;/span&gt;&lt;/div&gt;" style="rounded=1;whiteSpace=wrap;html=1;" vertex="1" parent="1">
          <mxGeometry x="310" y="290" width="120" height="60" as="geometry"/>
        </mxCell>
      </root>
    </mxGraphModel>
  </diagram>
  <diagram id="fpchxvB7jcuoS3M8kAAk" name="Page-2">
    <mxGraphModel dx="1038" dy="548" grid="1" gridSize="10" guides="1" tooltips="1" connect="1" arrows="1" fold="1" page="1" pageScale="1" pageWidth="827" pageHeight="1169" math="0" shadow="0">
      <root>
        <mxCell id="rn3LbExUmTe3k5_quKBN-0"/>
        <mxCell id="rn3LbExUmTe3k5_quKBN-1" parent="rn3LbExUmTe3k5_quKBN-0"/>
      </root>
    </mxGraphModel>
  </diagram>
</mxfile>
